# xmcd CD database file
#
# Track frame offsets:
#	150
#	17306
#	40270
#	61309
#	81463
#	99294
#	118060
#	133023
#	153314
#	170834
#	193405
#	206899
#	224438
#	237149
#
# Disc length: 3392 seconds
#
# Revision: 2
# Processed by: cddbd v1.4PL0 Copyright (c) Steve Scherf et al.
# Submitted via: CDex 1.40Beta9
#
DISCID=c90d3e0e
DTITLE=Di Paullo e Paulino - Ao Vivo
DYEAR=2002
DGENRE=Sertanejo
TTITLE0=Amor de Primavera
TTITLE1=Telefone Mudo, Ainda Ontem Chorei de Saudade
TTITLE2=Tô Por Aí 
TTITLE3=Tempo ao Tempo, A Noite do Nosso Amor
TTITLE4=Sonhei Com Você
TTITLE5=Pedaço de Minha Vida, 60 Dias Apaixonado
TTITLE6=Só Felicidade
TTITLE7=Ilusao Pedida, Mulher Sempre Mulher
TTITLE8=Onde Anda Você
TTITLE9=O Beijo do Adeus, Sublime Renúncia, Último Adeus
TTITLE10=Hoje Eu Nao Posso Ir
TTITLE11=Eu Disse Não, Esta Noite Como Lembrança
TTITLE12=Barco de Papel
TTITLE13=Boiadeiro Errante
EXTD=YEAR: 2002
EXTT0=
EXTT1=
EXTT2=
EXTT3=
EXTT4=
EXTT5=
EXTT6=
EXTT7=
EXTT8=
EXTT9=
EXTT10=
EXTT11=
EXTT12=
EXTT13=
PLAYORDER=
